<?xml version="1.0" encoding="UTF-8"?>
<svg id="katman_1" data-name="katman 1" xmlns="http://www.w3.org/2000/svg" viewBox="0 0 20.06 20.06">
  <defs>
    <style>
      .cls-1 {
        fill: #010202;
      }

      .cls-1, .cls-2 {
        stroke-width: 0px;
      }

      .cls-2 {
        fill: #fff;
      }
    </style>
  </defs>
  <path class="cls-1" d="m10.03,0h0c5.54,0,10.03,4.49,10.03,10.03h0c0,5.54-4.49,10.03-10.03,10.03h0C4.49,20.06,0,15.57,0,10.03H0C0,4.49,4.49,0,10.03,0Z"/>
  <path class="cls-2" d="m13.93,12.94l.44-2.9h-2.78v-1.88c0-.79.39-1.57,1.63-1.57h1.27v-2.47s-1.15-.2-2.25-.2c-2.29,0-3.79,1.39-3.79,3.9v2.21h-2.55v2.9h2.55v7.01c.51.08,1.03.12,1.57.12s1.06-.04,1.57-.12v-7.01h2.34Z"/>
</svg>