<?xml version="1.0" encoding="UTF-8"?>
<svg id="katman_1" data-name="katman 1" xmlns="http://www.w3.org/2000/svg" viewBox="0 0 20.06 20.06">
  <defs>
    <style>
      .cls-1 {
        fill: #010202;
      }

      .cls-1, .cls-2 {
        stroke-width: 0px;
      }

      .cls-2 {
        fill: #fff;
      }
    </style>
  </defs>
  <path class="cls-1" d="m10.03,0h0c5.54,0,10.03,4.49,10.03,10.03h0c0,5.54-4.49,10.03-10.03,10.03h0C4.49,20.06,0,15.57,0,10.03h0C0,4.49,4.49,0,10.03,0Z"/>
  <path class="cls-2" d="m10.03,5.1c1.61,0,1.8,0,2.43.04.59.03.91.12,1.12.21.28.11.48.24.69.45.21.21.34.41.45.69.08.21.18.53.21,1.12.03.64.04.82.04,2.43s0,1.8-.04,2.43c-.03.59-.12.91-.21,1.12-.11.28-.24.48-.45.69-.21.21-.41.34-.69.45-.21.08-.53.18-1.12.21-.64.03-.82.04-2.43.04s-1.8,0-2.43-.04c-.59-.03-.91-.12-1.12-.21-.28-.11-.48-.24-.69-.45-.21-.21-.34-.41-.45-.69-.08-.21-.18-.53-.21-1.12-.03-.64-.04-.82-.04-2.43s0-1.8.04-2.43c.03-.59.12-.91.21-1.12.11-.28.24-.48.45-.69.21-.21.41-.34.69-.45.21-.08.53-.18,1.12-.21.64-.04.83-.04,2.43-.04Zm0-1.09c-1.64,0-1.84,0-2.48.04s-1.08.13-1.46.28c-.4.15-.73.36-1.07.7-.33.33-.54.67-.7,1.07-.15.38-.25.82-.28,1.46s-.04.85-.04,2.48,0,1.84.04,2.48.13,1.08.28,1.46c.15.4.36.73.7,1.07.33.33.67.54,1.07.7.38.15.82.25,1.46.28s.85.04,2.48.04,1.84,0,2.48-.04,1.08-.13,1.46-.28c.4-.15.73-.36,1.07-.7.33-.33.54-.67.7-1.07.15-.38.25-.82.28-1.46s.04-.85.04-2.48,0-1.84-.04-2.48-.13-1.08-.28-1.46c-.15-.4-.36-.73-.7-1.07-.33-.33-.67-.54-1.07-.7-.38-.15-.82-.25-1.46-.28-.64-.03-.84-.04-2.48-.04Z"/>
  <path class="cls-2" d="m10.03,5.1c1.61,0,1.8,0,2.43.04.59.03.91.12,1.12.21.28.11.48.24.69.45.21.21.34.41.45.69.08.21.18.53.21,1.12.03.64.04.82.04,2.43s0,1.8-.04,2.43c-.03.59-.12.91-.21,1.12-.11.28-.24.48-.45.69-.21.21-.41.34-.69.45-.21.08-.53.18-1.12.21-.64.03-.82.04-2.43.04s-1.8,0-2.43-.04c-.59-.03-.91-.12-1.12-.21-.28-.11-.48-.24-.69-.45-.21-.21-.34-.41-.45-.69-.08-.21-.18-.53-.21-1.12-.03-.64-.04-.82-.04-2.43s0-1.8.04-2.43c.03-.59.12-.91.21-1.12.11-.28.24-.48.45-.69.21-.21.41-.34.69-.45.21-.08.53-.18,1.12-.21.64-.04.83-.04,2.43-.04Z"/>
  <path class="cls-1" d="m10.03,6.95c-1.71,0-3.09,1.38-3.09,3.09s1.38,3.09,3.09,3.09,3.09-1.38,3.09-3.09c.01-1.71-1.38-3.09-3.09-3.09Zm0,5.09c-1.11,0-2.01-.9-2.01-2.01s.9-2.01,2.01-2.01,2.01.9,2.01,2.01c0,1.12-.9,2.01-2.01,2.01Z"/>
  <path class="cls-1" d="m13.25,7.54c.4,0,.72-.32.72-.72s-.32-.72-.72-.72-.72.32-.72.72.32.72.72.72Z"/>
</svg>