<?xml version="1.0" encoding="UTF-8"?>
<svg id="katman_1" data-name="katman 1" xmlns="http://www.w3.org/2000/svg" viewBox="0 0 20.06 20.06">
  <defs>
    <style>
      .cls-1 {
        fill: #010202;
      }

      .cls-1, .cls-2 {
        stroke-width: 0px;
      }

      .cls-2 {
        fill: #fff;
      }
    </style>
  </defs>
  <path class="cls-1" d="m10.03,0h0c5.54,0,10.03,4.49,10.03,10.03h0c0,5.54-4.49,10.03-10.03,10.03h0C4.49,20.06,0,15.57,0,10.03H0C0,4.49,4.49,0,10.03,0Z"/>
  <path class="cls-2" d="m14.73,4.52H5.32c-.22,0-.42.09-.58.24-.15.15-.24.36-.24.58v9.41c0,.22.09.42.24.58.15.15.36.24.58.24h9.41c.22,0,.42-.09.58-.24.15-.15.24-.36.24-.58V5.34c0-.22-.09-.42-.24-.58-.15-.16-.36-.24-.58-.24Zm-6.93,9.4h-1.66v-5.27h1.66v5.27Zm-.83-6c-.19,0-.37-.06-.53-.16-.16-.11-.28-.25-.35-.43-.07-.17-.09-.37-.05-.55.04-.18.13-.35.26-.49.13-.13.3-.22.49-.26.18-.04.38-.02.55.06.17.07.32.19.43.35.1.16.16.34.16.53,0,.13-.02.25-.07.37s-.12.22-.21.31c-.09.09-.2.16-.31.21-.12.04-.25.06-.37.06Zm6.95,6h-1.66v-2.88c0-.85-.36-1.11-.83-1.11s-.97.37-.97,1.13v2.86h-1.66v-5.27h1.6v.73h.02c.16-.32.72-.88,1.58-.88.93,0,1.93.55,1.93,2.16v3.26Z"/>
</svg>