<?xml version="1.0" encoding="UTF-8"?>
<svg id="Camada_2" data-name="Camada 2" xmlns="http://www.w3.org/2000/svg" viewBox="0 0 20.06 20.06">
  <defs>
    <style>
      .cls-1 {
        fill: #010202;
      }

      .cls-1, .cls-2 {
        stroke-width: 0px;
      }

      .cls-2 {
        fill: #fff;
        fill-rule: evenodd;
      }
    </style>
  </defs>
  <g id="katman_1" data-name="katman 1">
    <path class="cls-1" d="m10.03,0h0c5.54,0,10.03,4.49,10.03,10.03h0c0,5.54-4.49,10.03-10.03,10.03h0C4.49,20.06,0,15.57,0,10.03H0C0,4.49,4.49,0,10.03,0Z"/>
    <path class="cls-2" d="m3.33,9.83c0-3.73,2.93-6.5,6.7-6.5s6.7,2.77,6.7,6.5-2.93,6.5-6.7,6.5c-.68,0-1.33-.09-1.94-.26-.12-.03-.25-.02-.36.03l-1.33.59c-.35.15-.74-.09-.75-.47l-.04-1.19c0-.15-.07-.28-.18-.38-1.3-1.17-2.1-2.86-2.1-4.82Zm4.64-1.22l-1.97,3.12c-.19.3.18.64.46.42l2.11-1.61c.15-.11.34-.11.49,0l1.57,1.17c.47.35,1.14.23,1.46-.27l1.97-3.12c.19-.3-.18-.64-.46-.42l-2.11,1.61c-.15.11-.34.11-.49,0l-1.57-1.17c-.48-.35-1.14-.23-1.46.27Z"/>
  </g>
</svg>