<?xml version="1.0" encoding="UTF-8"?>
<svg id="Camada_1" data-name="Camada 1" xmlns="http://www.w3.org/2000/svg" viewBox="0 0 24 24">
  <defs>
    <style>
      .cls-1 {
        fill: #fff;
      }

      .cls-1, .cls-2, .cls-3 {
        stroke-width: 0px;
      }

      .cls-2 {
        fill: #c8c7c7;
      }

      .cls-3 {
        fill: #020303;
      }
    </style>
  </defs>
  <path class="cls-3" d="m12.01-.01h0C18.64-.01,24.02,5.37,24.02,12h0c0,6.63-5.38,12.01-12.01,12.01h0C5.38,24.01,0,18.63,0,12h0C0,5.37,5.38-.01,12.01-.01Z"/>
  <path class="cls-2" d="m12.93,7.98c.86-.86,1.95-1.2,3.17-1.2h4.16c-.16,1.65-1.77,3.26-4.49,3.96h2.74c-.13,1.52-1.64,2.96-3.45,3.23-.47.07-.72.26-.96.65-1.05,1.69-2.63,2.56-4.71,2.6.24-.74.5-1.48.73-2.23.19-.65.35-1.31.51-1.95h0s.08-.12.13-.18c.08-.28.17-.55.25-.81.62-1.35,1.26-2.71,1.88-4.06h.02Z"/>
  <path class="cls-1" d="m10.66,13.08c-.17.65-.32,1.31-.51,1.95-.23.75-.49,1.48-.73,2.23-3.03.08-5.68-2.51-5.5-5.39.13-2.14,1.19-3.74,3.23-4.62,2.07-.9,4.02-.59,5.81.77-.62,1.35-1.26,2.71-1.88,4.06-.02-.13-.02-.28-.06-.41-.18-.66-.62-1.07-1.31-1.2-.67-.13-1.23.1-1.63.62-.42.54-.46,1.13-.1,1.72.56.93,1.66,1.03,2.69.26h-.02Z"/>
</svg>