<?xml version="1.0" encoding="utf-8"?>
<!-- Generator: Adobe Illustrator 28.1.0, SVG Export Plug-In . SVG Version: 6.00 Build 0)  -->
<svg version="1.1" id="Layer_1" xmlns="http://www.w3.org/2000/svg" xmlns:xlink="http://www.w3.org/1999/xlink" x="0px" y="0px"
	 viewBox="0 0 1920 1080" style="enable-background:new 0 0 1920 1080;" xml:space="preserve">
<style type="text/css">
	.st0{fill:#FFFFFF;}
</style>
<g>
	<g>
		<path d="M1091.1,511.5c0,21.1-17.5,38.8-38.7,39c-21,0.2-38.7-17.5-38.8-38.9c0-21.3,17.5-39,38.6-39
			C1073.4,472.7,1091.1,490.4,1091.1,511.5z M1088,511.4c-0.1-19.5-16.2-35.5-35.8-35.5c-19.5,0-35.5,16.1-35.5,35.7
			c0,19.8,16.3,36,36,35.8C1072.2,547.2,1088.1,530.9,1088,511.4z"/>
		<path class="st0" d="M1088,511.4c0.1,19.6-15.8,35.8-35.3,36c-19.7,0.2-36-16-36-35.8c0-19.7,16-35.7,35.5-35.8
			C1071.8,475.8,1087.9,491.8,1088,511.4z M1054.8,514.9c0.2,2.6,0.4,4.9,0.5,5.9c4.5-4,9.3-8.3,13-11.6c-4.7-4.6-9.1-8.9-13.1-12.8
			c-0.1,1.2-0.2,3.4-0.3,5.6c-13.3,4.8-20.3,12.7-18.9,21.4C1041.4,518.6,1047.1,514.8,1054.8,514.9z"/>
		<path d="M1054.8,514.9c-7.7-0.1-13.4,3.7-18.8,8.5c-1.5-8.7,5.6-16.6,18.9-21.4c0.1-2.1,0.3-4.4,0.3-5.6c4,3.9,8.4,8.2,13.1,12.8
			c-3.7,3.3-8.5,7.6-13,11.6C1055.2,519.8,1055,517.5,1054.8,514.9z"/>
	</g>
</g>
</svg>
