<?xml version="1.0" encoding="UTF-8"?>
<svg id="katman_1" data-name="katman 1" xmlns="http://www.w3.org/2000/svg" viewBox="0 0 20.06 20.06">
  <defs>
    <style>
      .cls-1 {
        fill: #010202;
      }

      .cls-1, .cls-2 {
        stroke-width: 0px;
      }

      .cls-2 {
        fill: #fff;
      }
    </style>
  </defs>
  <path class="cls-1" d="m10.03,0h0c5.54,0,10.03,4.49,10.03,10.03h0c0,5.54-4.49,10.03-10.03,10.03h0C4.49,20.06,0,15.57,0,10.03h0C0,4.49,4.49,0,10.03,0Z"/>
  <path class="cls-2" d="m15.27,13.24c-1.96-.95-2.27-2.41-2.29-2.52-.02-.13-.04-.23.11-.37.14-.13.76-.51.93-.63.28-.2.41-.4.32-.64-.06-.17-.22-.23-.39-.23-.05,0-.1,0-.16.02-.31.07-.62.22-.79.27-.02,0-.04,0-.06,0-.09,0-.13-.04-.12-.15.02-.34.07-1.01,0-1.63-.07-.86-.35-1.28-.68-1.66-.16-.18-.9-.97-2.32-.97s-2.16.78-2.32.96c-.33.38-.61.8-.68,1.66-.05.62,0,1.29,0,1.63,0,.11-.03.15-.12.15-.02,0-.04,0-.06,0-.18-.04-.48-.2-.79-.27-.05,0-.1-.02-.16-.02-.17,0-.32.06-.39.23-.09.24.03.44.32.64.17.12.79.5.93.63.15.13.13.24.11.37,0,.11-.33,1.57-2.29,2.52-.11.06-.31.17.03.36.54.3.9.27,1.18.45.24.15.1.48.27.6.21.15.84,0,1.65.26.68.22,1.09.86,2.3.86s1.63-.63,2.3-.86c.81-.27,1.44-.11,1.65-.26.17-.12.03-.45.27-.6.28-.18.64-.15,1.18-.45.36-.18.16-.29.05-.35Z"/>
  <path class="cls-1" d="m16.12,13.13c-.09-.24-.26-.37-.45-.47-.04-.02-.07-.04-.1-.05-.06-.03-.11-.06-.17-.09-.59-.32-1.06-.71-1.38-1.18-.09-.13-.17-.27-.24-.42-.03-.08-.03-.12,0-.16.02-.03.05-.06.08-.08.1-.07.21-.14.28-.18.13-.08.23-.15.29-.19.24-.17.41-.35.52-.55.07-.14.12-.29.13-.45,0-.16-.02-.32-.07-.46-.16-.43-.56-.69-1.05-.69-.1,0-.21,0-.31.03-.03,0-.05,0-.08.02,0-.29,0-.6-.03-.9-.09-1.06-.46-1.62-.85-2.06-.25-.28-.54-.51-.87-.7-.59-.34-1.26-.51-1.98-.51s-1.39.17-1.98.51c-.33.18-.62.42-.87.7-.39.44-.76,1-.85,2.06-.03.3-.03.61-.03.9-.03,0-.05,0-.08-.02-.1-.02-.2-.03-.31-.03-.49,0-.89.26-1.05.69-.06.15-.08.31-.07.47s.05.31.13.45c.11.2.28.38.52.55.06.05.17.11.29.19.07.04.17.11.27.18.03.02.06.05.09.09.02.04.02.09,0,.17-.07.14-.14.28-.23.41-.32.46-.77.85-1.34,1.16-.31.16-.62.27-.76.63-.1.27-.04.59.22.85.09.1.2.18.32.24.25.14.52.24.79.32.06,0,.11.04.16.07.09.08.08.21.2.39.06.09.14.17.23.24.26.18.55.19.87.2.28,0,.6.02.96.14.15.05.31.15.49.26.44.27,1.03.63,2.03.63s1.6-.37,2.04-.64c.18-.11.34-.21.48-.25.36-.12.68-.13.96-.14.31,0,.6-.02.87-.2.11-.08.2-.18.27-.29.09-.15.09-.26.17-.33.05-.03.1-.05.15-.07.28-.07.55-.18.8-.32.13-.07.24-.16.34-.27h0c.26-.28.32-.58.22-.85Zm-.89.48c-.54.3-.9.27-1.18.45-.24.15-.1.48-.27.6-.21.15-.84,0-1.65.26-.67.22-1.09.86-2.3.86s-1.62-.63-2.3-.86c-.81-.27-1.44-.11-1.65-.26-.17-.12-.03-.45-.27-.6-.28-.18-.64-.15-1.18-.45-.34-.19-.15-.31-.03-.36,1.96-.95,2.27-2.41,2.29-2.52.02-.13.04-.23-.11-.37-.14-.13-.76-.51-.93-.63-.29-.2-.41-.4-.32-.64.06-.17.22-.23.39-.23.05,0,.1,0,.16.02.31.07.62.22.79.27.02,0,.04,0,.06,0,.09,0,.13-.05.12-.15-.02-.34-.07-1.01,0-1.63.07-.86.35-1.28.68-1.66.16-.18.9-.96,2.32-.96s2.16.78,2.32.96c.33.38.61.8.68,1.66.05.62,0,1.29,0,1.63,0,.11.03.15.12.15.02,0,.04,0,.06,0,.18-.04.48-.2.79-.27.05,0,.1-.02.16-.02.17,0,.32.06.39.23.09.24-.03.44-.32.64-.17.12-.79.5-.93.63-.15.13-.13.24-.11.37,0,.11.33,1.57,2.29,2.52.1.05.3.16-.05.36Z"/>
</svg>