<?xml version="1.0" encoding="UTF-8"?>
<svg id="katman_1" data-name="katman 1" xmlns="http://www.w3.org/2000/svg" viewBox="0 0 20 20">
  <defs>
    <style>
      .cls-1 {
        fill: #010202;
      }

      .cls-1, .cls-2 {
        stroke-width: 0px;
      }

      .cls-2 {
        fill: #fff;
        fill-rule: evenodd;
      }
    </style>
  </defs>
  <path class="cls-1" d="m10,0h0c5.5,0,10,4.5,10,10h0c0,5.5-4.5,10-10,10h0C4.5,20,0,15.5,0,10H0C-.1,4.5,4.4,0,10,0Z"/>
  <path class="cls-2" d="m5.2,9.9c2.9-1.3,4.9-2.1,5.9-2.5,2.8-1.2,3.4-1.4,3.7-1.4.1,0,.3,0,.4.1s.1.2.2.3v.4c-.2,1.6-.8,5.4-1.1,7.2-.1.8-.4,1-.7,1-.6,0-1-.4-1.6-.8-.9-.6-1.4-.9-2.2-1.5-1-.6-.3-1,.2-1.6.2-.1,2.7-2.5,2.8-2.7v-.2c0-.1-.1,0-.2,0s-1.5.9-4.2,2.8c-.4.3-.8.4-1.1.4-.4,0-1-.2-1.6-.4-.6-.2-1.1-.3-1.1-.7-.2,0,.1-.1.6-.4Z"/>
</svg>