<?xml version="1.0" encoding="UTF-8"?>
<svg id="Camada_2" data-name="Camada 2" xmlns="http://www.w3.org/2000/svg" viewBox="0 0 20.06 20.06">
  <defs>
    <style>
      .cls-1 {
        fill: #010202;
      }

      .cls-1, .cls-2 {
        stroke-width: 0px;
      }

      .cls-2 {
        fill: #fff;
      }
    </style>
  </defs>
  <g id="katman_1" data-name="katman 1">
    <path class="cls-1" d="m10.03,0h0c5.54,0,10.03,4.49,10.03,10.03h0c0,5.54-4.49,10.03-10.03,10.03h0C4.49,20.06,0,15.57,0,10.03h0C0,4.49,4.49,0,10.03,0Z"/>
    <path class="cls-2" d="m13.24,3.01h-2.47v9.57c0,1.14-.95,2.08-2.14,2.08s-2.14-.94-2.14-2.08.93-2.04,2.07-2.08v-2.4c-2.52.04-4.55,2.02-4.55,4.48s2.07,4.48,4.63,4.48,4.63-2.02,4.63-4.48v-4.91c.93.65,2.07,1.04,3.28,1.06v-2.4c-1.86-.06-3.31-1.53-3.31-3.32Z"/>
  </g>
</svg>