<?xml version="1.0" encoding="UTF-8"?>
<svg id="katman_1" data-name="katman 1" xmlns="http://www.w3.org/2000/svg" viewBox="0 0 20.06 20.06">
  <defs>
    <style>
      .cls-1 {
        fill: #010202;
      }

      .cls-1, .cls-2 {
        stroke-width: 0px;
      }

      .cls-2 {
        fill: #fff;
      }
    </style>
  </defs>
  <path class="cls-1" d="m10.03,0h0c5.54,0,10.03,4.49,10.03,10.03h0c0,5.54-4.49,10.03-10.03,10.03h0C4.49,20.06,0,15.57,0,10.03H0C0,4.49,4.48,0,10.03,0Z"/>
  <path class="cls-2" d="m8.19,15.33c4.45,0,6.88-3.69,6.88-6.88,0-.11,0-.21-.01-.31.47-.34.88-.77,1.21-1.25-.43.19-.9.32-1.39.38.5-.3.88-.77,1.06-1.34-.47.28-.98.48-1.54.59-.44-.47-1.07-.76-1.77-.76-1.33,0-2.42,1.08-2.42,2.42,0,.19.02.38.07.55-2.01-.1-3.79-1.06-4.99-2.53-.21.36-.33.77-.33,1.21,0,.84.43,1.58,1.08,2.01-.4,0-.77-.12-1.09-.3v.03c0,1.17.83,2.15,1.94,2.37-.2.06-.42.09-.64.09-.16,0-.31-.02-.46-.05.31.96,1.2,1.66,2.26,1.68-.83.65-1.87,1.03-3.01,1.03-.2,0-.39,0-.58-.04,1.09.7,2.36,1.1,3.73,1.1Z"/>
</svg>