<?xml version="1.0" encoding="UTF-8"?>
<svg id="Camada_2" data-name="Camada 2" xmlns="http://www.w3.org/2000/svg" viewBox="0 0 20 20">
  <defs>
    <style>
      .cls-1 {
        fill: #010202;
      }

      .cls-1, .cls-2, .cls-3 {
        stroke-width: 0px;
      }

      .cls-2, .cls-3 {
        fill: #fff;
      }

      .cls-3 {
        fill-rule: evenodd;
      }
    </style>
  </defs>
  <g id="katman_1" data-name="katman 1">
    <path class="cls-1" d="m10,0h0c5.5,0,10,4.5,10,10h0c0,5.5-4.5,10-10,10h0C4.5,20,0,15.5,0,10h0C0,4.4,4.5,0,10,0Z"/>
    <path class="cls-2" d="m4,15.8l.9-3.1c-.5-.9-.8-2-.8-3,0-3.3,2.7-6,6.1-6,1.6,0,3.2.6,4.3,1.8,1.1,1.1,1.8,2.7,1.8,4.3,0,3.3-2.7,6-6.1,6h0c-1,0-2-.2-2.9-.7l-3.3.7Zm3.3-1.9l.2.1c.8.5,1.7.7,2.6.7h0c2.8,0,5-2.2,5-5,0-1.3-.5-2.6-1.5-3.6-1-.9-2.2-1.5-3.6-1.5-2.8,0-5,2.2-5,5,0,.9.3,1.9.8,2.7l.1.2-.5,1.9,1.9-.5Z"/>
    <path class="cls-1" d="m4.2,15.6l.8-3c-.5-.9-.8-1.9-.8-2.9,0-3.2,2.6-5.8,5.9-5.8,1.6,0,3,.6,4.1,1.7,1.1,1.1,1.7,2.6,1.7,4.1,0,3.2-2.6,5.8-5.8,5.8h0c-1,0-1.9-.2-2.8-.7l-3.1.8Z"/>
    <path class="cls-2" d="m4,15.8l.9-3.1c-.5-.9-.8-2-.8-3,0-3.3,2.7-6,6.1-6,1.6,0,3.2.6,4.3,1.8,1.1,1.1,1.8,2.7,1.8,4.3,0,3.3-2.7,6-6.1,6h0c-1,0-2-.2-2.9-.7l-3.3.7Zm3.3-1.9l.2.1c.8.5,1.7.7,2.6.7h0c2.8,0,5-2.2,5-5,0-1.3-.5-2.6-1.5-3.6-1-.9-2.2-1.5-3.6-1.5-2.8,0-5,2.2-5,5,0,.9.3,1.9.8,2.7l.1.2-.5,1.9,1.9-.5Z"/>
    <path class="cls-3" d="m8.5,7.2c-.1-.2-.2-.3-.3-.3h-.3c-.1,0-.3,0-.4.2-.1.1-.5.5-.5,1.3,0,.7.5,1.5.6,1.6s1,1.7,2.6,2.3c1.3.5,1.5.4,1.8.4s.9-.4,1-.7c.1-.4.1-.6.1-.7s-.1-.1-.3-.2c-.2-.1-.9-.4-1-.5s-.2-.1-.3.1c-.1.1-.4.5-.5.6s-.2.1-.3,0c-.2-.1-.6-.2-1.2-.8-.5-.4-.8-.9-.8-1s0-.2.1-.3.2-.2.2-.3q.1-.1.2-.2v-.3c-.2-.2-.5-.9-.7-1.2Z"/>
  </g>
</svg>